<?xml version="1.0" encoding="UTF-8" standalone="no"?>
<svg
   xmlns:dc="http://purl.org/dc/elements/1.1/"
   xmlns:cc="http://creativecommons.org/ns#"
   xmlns:rdf="http://www.w3.org/1999/02/22-rdf-syntax-ns#"
   xmlns:svg="http://www.w3.org/2000/svg"
   xmlns="http://www.w3.org/2000/svg"
   viewBox="0 0 755.90533 181.43333"
   height="181.43333"
   width="755.90533"
   xml:space="preserve"
   id="svg2"
   version="1.1"><metadata
     id="metadata8"><rdf:RDF><cc:Work
         rdf:about=""><dc:format>image/svg+xml</dc:format><dc:type
           rdf:resource="http://purl.org/dc/dcmitype/StillImage" /></cc:Work></rdf:RDF></metadata><defs
     id="defs6"><clipPath
       id="clipPath38"
       clipPathUnits="userSpaceOnUse"><path
         id="path36"
         d="M 0,136.075 H 566.929 V 0 H 0 Z" /></clipPath></defs><g
     transform="matrix(1.3333333,0,0,-1.3333333,0,181.43333)"
     id="g10"><g
       transform="translate(191.9826,65.4613)"
       id="g12"><path
         id="path14"
         style="fill:#6b3c7a;fill-opacity:1;fill-rule:nonzero;stroke:none"
         d="m 0,0 h 11.678 l 1.23,6.263 H 0 v 8.896 h 14.259 l 1.23,6.567 H -9.589 v -38.294 h 25.078 l 1.23,6.566 -16.719,0 z" /></g><g
       transform="translate(298.2553,65.4613)"
       id="g16"><path
         id="path18"
         style="fill:#6b3c7a;fill-opacity:1;fill-rule:nonzero;stroke:none"
         d="m 0,0 h 11.678 l 1.23,6.263 H 0 v 8.896 h 14.259 l 1.23,6.567 H -9.589 v -38.294 h 25.078 l 1.23,6.566 -16.719,0 z" /></g><g
       transform="translate(373.8893,65.4613)"
       id="g20"><path
         id="path22"
         style="fill:#6b3c7a;fill-opacity:1;fill-rule:nonzero;stroke:none"
         d="m 0,0 h 11.678 l 1.23,6.263 H 0 v 8.896 h 14.259 l 1.23,6.567 H -9.589 v -38.294 h 25.078 l 1.23,6.566 -16.719,0 z" /></g><g
       transform="translate(228.8,87.1868)"
       id="g24"><path
         id="path26"
         style="fill:#6b3c7a;fill-opacity:1;fill-rule:nonzero;stroke:none"
         d="m 0,0 -16.905,-38.294 h 8.359 l 11.188,26.206 8.298,-20.069 2.52,-6.137 h 0.005 10.51 L 7.808,0 Z" /></g><g
       transform="translate(249.5113,80.62)"
       id="g28"><path
         id="path30"
         style="fill:#6b3c7a;fill-opacity:1;fill-rule:nonzero;stroke:none"
         d="m 0,0 h 12.357 v -31.732 h 9.528 V 0 h 11.739 l 1.291,6.567 H 0 Z" /></g><g
       id="g32"><g
         clip-path="url(#clipPath38)"
         id="g34"><g
           transform="translate(454.131,54.783)"
           id="g40"><path
             id="path42"
             style="fill:#6b3c7a;fill-opacity:1;fill-rule:nonzero;stroke:none"
             d="m 0,0 c -5.594,0 -11.188,5.582 -11.188,13.376 0,7.794 4.302,13.007 10.698,13.007 5.59,0 11.244,-5.582 11.244,-13.376 C 10.754,5.213 5.598,0 0,0 m -0.061,33.015 c -10.324,0 -21.265,-7.248 -21.265,-19.947 0,-12.699 10.75,-19.574 20.957,-19.574 h 0.061 c 10.329,0 21.27,5.03 21.27,19.942 0,12.387 -10.694,19.579 -21.023,19.579" /></g><g
           transform="translate(518.8549,87.1868)"
           id="g44"><path
             id="path46"
             style="fill:#6b3c7a;fill-opacity:1;fill-rule:nonzero;stroke:none"
             d="M 0,0 -15.615,-22.705 -32.21,0 h -6.574 v -38.298 h 7.988 v 20.194 l 11.864,-16.26 h 3.807 l 11.743,16.872 V -38.298 H 6.145 L 6.145,0 Z" /></g><g
           transform="translate(335.0083,87.1868)"
           id="g48"><path
             id="path50"
             style="fill:#6b3c7a;fill-opacity:1;fill-rule:nonzero;stroke:none"
             d="m 0,0 -16.903,-38.233 h 8.36 l 11.188,26.201 8.3,-20.064 2.519,-6.137 H 23.975 L 7.805,0 Z" /></g><g
           transform="translate(431.0746,87.1868)"
           id="g52"><path
             id="path54"
             style="fill:#6b3c7a;fill-opacity:1;fill-rule:nonzero;stroke:none"
             d="M 0,0 H -9.698 L -25.384,-17.492 V 0 h -9.527 v -38.298 h 9.527 v 10.557 l 4.982,5.4 11.539,-15.957 H 2.026 l -16.47,22.523 z" /></g><g
           transform="translate(81.3476,78.4907)"
           id="g56"><path
             id="path58"
             style="fill:#6b3c7a;fill-opacity:1;fill-rule:nonzero;stroke:none"
             d="m 0,0 c 5.928,4.318 11.267,7.388 15.376,9.524 l 1.76,10.762 C 12.149,19.221 -18.257,12.599 -31.755,0.885 l 0.042,0.043 c -4.395,-3.371 -8.724,-8.926 -7.492,-16.425 2.169,-9.052 13.674,-17.662 30.447,-9.907 C -11.576,-8.016 -13.089,-9.465 0,0" /></g><g
           transform="translate(96.6254,82.9888)"
           id="g60"><path
             id="path62"
             style="fill:#6b3c7a;fill-opacity:1;fill-rule:nonzero;stroke:none"
             d="m 0,0 c 2.818,-17.388 4.331,-15.939 -8.758,-25.404 -5.928,-4.318 -11.267,-7.388 -15.376,-9.524 l -1.76,-10.763 c 4.987,1.066 35.393,7.688 48.892,19.402 l -0.043,-0.043 c 4.395,3.371 8.724,8.926 7.492,16.425 C 28.278,-0.855 16.773,7.755 0,0" /></g><g
           transform="translate(161.0047,54.9431)"
           id="g64"><path
             id="path66"
             style="fill:#6b3c7a;fill-opacity:1;fill-rule:nonzero;stroke:none"
             d="m 0,0 c -0.707,-0.081 -2.443,-0.187 -4.974,-0.187 v 13.039 h 3.738 C 2.12,12.852 5.966,10.26 5.966,6.159 5.966,3.018 4.306,0.602 0,0 m -0.8,18.312 h -4.179 v 7.305 h 18.13 l 1.291,6.627 H -14.563 V -6.05 h 12.908 c 9.619,0 17.453,2.469 17.453,11.35 0,2.312 -0.679,4.668 -2.151,6.628 -2.89,3.869 -7.286,6.384 -14.447,6.384" /></g></g></g></g></svg>